<svg id="Ebene_1" data-name="Ebene 1" xmlns="http://www.w3.org/2000/svg" viewBox="0 0 332.26 57.41"><defs><style>.cls-1,.cls-2{fill:#9e9d9c;stroke:#9e9d9c;stroke-miterlimit:10;}.cls-1{fill-rule:evenodd;}</style></defs><title>Aquifer-Logo</title><path class="cls-1" d="M396.89,312.09a26.84,26.84,0,1,0-7,6.89l7.35,7.35h13.83Zm-22,3.38a18.6,18.6,0,1,1,18.6-18.6A18.6,18.6,0,0,1,374.85,315.47Z" transform="translate(-254.42 -269.42)"/><polygon class="cls-2" points="45.15 52.84 26.75 2.46 19.04 2.46 0.71 52.84 10.97 52.84 22.9 17.32 29.69 37.46 21.88 37.46 18.92 46.23 32.66 46.23 34.89 52.84 45.15 52.84"/><path class="cls-2" d="M425,322.75c-10.33,0-18.54-7-18.54-17.68V271.94h9.84V304.7c0,5.8,3.39,9.27,8.7,9.27s8.77-3.47,8.77-9.27V271.94h9.76v33.12C443.58,315.74,435.37,322.75,425,322.75Z" transform="translate(-254.42 -269.42)"/><path class="cls-2" d="M451.9,322.26V271.88h9.83v50.38H451.9Z" transform="translate(-254.42 -269.42)"/><path class="cls-2" d="M323,323.61c-14.65,0-26.57-12.13-26.57-27a26.67,26.67,0,0,1,26.64-26.64,27.67,27.67,0,0,1,15.8,5,25.93,25.93,0,0,1,7.87,9l0.77,1.34H336.94l-0.36-.41c-1.59-1.82-5.81-6.64-13.38-6.64-9.84,0-17.85,8.25-17.85,18.39s8.11,18.66,17.71,18.66a17.33,17.33,0,0,0,13.09-6.36l0.24-.28h10.76l-0.68,1.2A26.71,26.71,0,0,1,323,323.61Z" transform="translate(-254.42 -269.42)"/><path class="cls-2" d="M479.89,280.66V294h19.88v8.21H479.89v20.09h-9.84V271.88h33.18v8.78H479.89Z" transform="translate(-254.42 -269.42)"/><path class="cls-2" d="M508.56,322.26V271.88h33.18v8.78H518.4V294h19.88v8.21H518.4v11.32h23.35v8.77H508.56Z" transform="translate(-254.42 -269.42)"/><path class="cls-2" d="M574.47,322.26l-9.83-20.09h-7.08v20.09h-9.83V271.88h19.74c10.26,0,16.34,7,16.34,15.43a13.57,13.57,0,0,1-9.2,13.23l11.25,21.72H574.47Zm-7.64-41.6h-9.27V294h9.27c4.32,0,7.15-2.76,7.15-6.65S571.14,280.66,566.83,280.66Z" transform="translate(-254.42 -269.42)"/></svg>