<?xml version="1.0" standalone="no"?>
<!DOCTYPE svg PUBLIC "-//W3C//DTD SVG 20010904//EN"
 "http://www.w3.org/TR/2001/REC-SVG-20010904/DTD/svg10.dtd">
<svg version="1.0" xmlns="http://www.w3.org/2000/svg"
 width="205.000000pt" height="79.000000pt" viewBox="0 0 205.000000 79.000000"
 preserveAspectRatio="xMidYMid meet">

<g transform="translate(0.000000,79.000000) scale(0.100000,-0.100000)"
fill="#000000" stroke="none">
<path d="M529 686 c-137 -29 -249 -103 -323 -214 -49 -75 -82 -162 -92 -245
-7 -55 -6 -56 27 -77 48 -29 152 -60 229 -68 210 -23 340 52 487 277 41 64 90
131 107 150 18 20 22 28 10 20 -26 -18 -66 -64 -136 -159 -138 -188 -279 -264
-457 -246 -53 6 -250 44 -258 50 -1 1 13 44 32 95 80 215 208 337 405 387 51
13 92 15 185 11 66 -4 134 -9 150 -13 17 -4 27 -4 24 -1 -11 12 -147 36 -235
41 -57 4 -113 0 -155 -8z"/>
<path d="M945 640 c27 -12 43 -12 25 0 -8 5 -22 9 -30 9 -10 0 -8 -3 5 -9z"/>
<path d="M1712 603 c-11 -21 -4 -83 9 -83 5 0 10 10 10 23 1 12 3 34 5 50 3
30 -11 36 -24 10z"/>
<path d="M1202 598 c-13 -13 -15 -37 -6 -62 7 -17 64 -23 64 -6 0 5 -10 9 -22
7 -19 -2 -23 3 -23 28 0 25 4 30 23 28 13 -2 21 1 17 7 -8 14 -38 13 -53 -2z"/>
<path d="M1457 592 c-3 -4 -2 -22 0 -39 4 -22 11 -33 22 -32 10 0 11 2 4 6
-15 6 -17 43 -3 43 6 0 10 4 10 9 0 11 -28 22 -33 13z"/>
<path d="M1284 576 c-12 -30 0 -51 31 -53 20 -1 23 0 8 4 -29 6 -30 23 -2 23
14 0 19 5 17 18 -4 22 -46 29 -54 8z"/>
<path d="M1371 553 c2 -30 3 -32 6 -10 2 15 10 27 18 27 8 0 16 -12 18 -27 4
-21 4 -19 3 7 -1 28 -5 36 -23 38 -21 3 -23 -1 -22 -35z"/>
<path d="M1517 583 c-11 -10 -8 -63 3 -63 6 0 10 11 10 25 0 14 5 25 10 25 6
0 10 5 10 10 0 11 -23 14 -33 3z"/>
<path d="M1581 576 c-21 -25 -9 -51 24 -53 20 -1 23 0 8 4 -29 6 -30 23 -2 23
14 0 19 5 17 17 -4 23 -31 28 -47 9z m36 -12 c-3 -3 -12 -4 -19 -1 -8 3 -5 6
6 6 11 1 17 -2 13 -5z"/>
<path d="M1767 584 c-4 -4 -7 -20 -7 -36 0 -26 3 -29 28 -26 23 3 27 8 27 33
0 23 -5 31 -20 33 -12 2 -24 0 -28 -4z m39 -25 c10 -17 -13 -36 -27 -22 -12
12 -4 33 11 33 5 0 12 -5 16 -11z"/>
<path d="M1850 555 c0 -19 5 -35 10 -35 6 0 10 11 10 25 0 14 5 25 10 25 6 0
10 5 10 10 0 6 -9 10 -20 10 -16 0 -20 -7 -20 -35z"/>
<path d="M334 490 c-35 -14 -54 -50 -54 -103 0 -38 5 -53 25 -72 30 -31 82
-33 118 -5 l26 21 21 -21 c23 -23 105 -30 98 -7 -3 6 -17 12 -31 12 -46 1 -62
28 -60 95 1 33 -2 60 -6 60 -12 0 -31 -48 -31 -79 0 -37 -38 -71 -78 -71 -36
0 -52 22 -52 72 0 63 42 94 91 68 15 -8 19 -7 19 4 0 8 -3 17 -7 19 -20 11
-60 14 -79 7z"/>
<path d="M506 482 c-3 -5 8 -7 23 -4 37 5 71 -36 71 -85 0 -50 45 -93 97 -93
44 0 63 14 63 46 0 22 -16 40 -53 59 -54 27 -41 82 17 71 28 -4 29 -4 8 6 -16
8 -29 8 -48 -1 -40 -18 -29 -58 24 -94 43 -29 51 -44 30 -65 -35 -35 -125 12
-125 65 0 50 -12 79 -38 91 -30 14 -62 16 -69 4z"/>
<path d="M1930 430 c0 -27 5 -50 10 -50 6 0 10 23 10 50 0 28 -4 50 -10 50 -5
0 -10 -22 -10 -50z"/>
<path d="M1194 444 c-9 -36 7 -59 42 -59 27 0 29 3 29 40 0 38 -2 40 -32 43
-28 3 -33 0 -39 -24z m61 -5 c8 -24 -16 -55 -34 -45 -12 8 -15 49 -4 59 13 14
32 7 38 -14z"/>
<path d="M1300 415 c0 -19 5 -35 10 -35 6 0 10 11 10 25 0 14 5 25 10 25 6 0
10 5 10 10 0 6 -9 10 -20 10 -16 0 -20 -7 -20 -35z"/>
<path d="M1367 443 c-4 -3 -7 -23 -7 -44 0 -42 18 -55 47 -34 14 10 15 16 6
26 -8 8 -9 19 -3 35 8 21 7 24 -14 24 -12 0 -26 -3 -29 -7z m30 -69 c-3 -3
-12 -4 -19 -1 -8 3 -5 6 6 6 11 1 17 -2 13 -5z"/>
<path d="M1440 440 c0 -7 7 -10 15 -6 8 3 15 1 15 -4 0 -6 -7 -10 -15 -10 -8
0 -15 -9 -15 -20 0 -15 7 -20 26 -20 23 0 25 3 22 33 -2 24 -8 33 -25 35 -13
2 -23 -2 -23 -8z m30 -40 c0 -5 -2 -10 -4 -10 -3 0 -8 5 -11 10 -3 6 -1 10 4
10 6 0 11 -4 11 -10z"/>
<path d="M1520 416 c0 -20 5 -36 10 -36 6 0 10 11 10 25 0 14 5 25 10 25 6 0
10 -11 10 -25 0 -14 5 -25 11 -25 6 0 9 14 7 33 -2 27 -8 33 -30 35 -26 3 -28
1 -28 -32z"/>
<path d="M1610 416 c0 -20 5 -36 10 -36 6 0 10 13 10 29 0 17 -4 33 -10 36 -6
4 -10 -8 -10 -29z"/>
<path d="M1654 438 c-4 -6 0 -16 9 -23 21 -15 22 -29 2 -21 -8 3 -15 1 -15 -4
0 -14 37 -12 46 2 4 6 0 16 -9 23 -18 13 -24 30 -7 20 6 -3 10 -1 10 4 0 15
-27 14 -36 -1z"/>
<path d="M1726 443 c-10 -10 -7 -51 4 -58 6 -4 10 5 10 20 0 33 22 29 31 -6 7
-23 7 -23 8 4 1 34 22 32 33 -4 5 -19 6 -17 5 11 -2 34 -4 35 -43 37 -23 2
-44 0 -48 -4z"/>
<path d="M1850 439 c0 -6 7 -9 15 -6 8 4 17 2 20 -3 4 -6 -3 -10 -14 -10 -14
0 -21 -6 -21 -20 0 -15 7 -20 25 -20 22 0 25 4 25 35 0 31 -3 35 -25 35 -14 0
-25 -5 -25 -11z m40 -33 c0 -3 -4 -8 -10 -11 -5 -3 -10 -1 -10 4 0 6 5 11 10
11 6 0 10 -2 10 -4z"/>
<path d="M586 335 c-3 -8 -1 -15 4 -15 6 0 10 7 10 15 0 8 -2 15 -4 15 -2 0
-6 -7 -10 -15z"/>
<path d="M1203 333 c-20 -8 -15 -41 7 -48 11 -3 20 -11 20 -16 0 -5 -9 -9 -20
-9 -11 0 -20 -4 -20 -10 0 -16 36 -12 51 6 11 14 10 19 -9 34 -26 21 -28 30
-6 30 8 0 12 5 9 10 -7 11 -13 11 -32 3z"/>
<path d="M1460 326 c0 -7 -9 -16 -21 -19 -16 -4 -20 -12 -17 -34 2 -22 9 -29
31 -31 26 -3 27 -2 27 47 0 28 -4 51 -10 51 -5 0 -10 -6 -10 -14z m0 -46 c0
-19 -11 -26 -23 -14 -8 8 3 34 14 34 5 0 9 -9 9 -20z"/>
<path d="M1510 330 c0 -5 5 -10 11 -10 5 0 7 5 4 10 -3 6 -8 10 -11 10 -2 0
-4 -4 -4 -10z"/>
<path d="M1272 317 c-14 -18 5 -77 25 -77 13 0 14 3 5 12 -14 14 -16 45 -3 50
5 2 3 8 -4 15 -10 10 -15 10 -23 0z"/>
<path d="M1332 278 c2 -28 8 -34 31 -36 25 -3 27 -1 27 33 0 22 -4 34 -10 30
-5 -3 -10 -15 -10 -26 0 -10 -4 -19 -10 -19 -5 0 -10 11 -10 25 0 14 -5 25
-11 25 -6 0 -9 -14 -7 -32z"/>
<path d="M1510 274 c0 -21 4 -33 10 -29 6 3 10 19 10 36 0 16 -4 29 -10 29 -5
0 -10 -16 -10 -36z"/>
<path d="M1553 294 c-3 -9 -2 -24 4 -33 12 -19 53 -27 53 -11 0 7 -7 10 -15 7
-8 -4 -17 -2 -20 3 -4 6 3 10 14 10 14 0 21 6 21 20 0 25 -47 28 -57 4z m37
-4 c0 -5 -4 -10 -10 -10 -5 0 -10 5 -10 10 0 6 5 10 10 10 6 0 10 -4 10 -10z"/>
<path d="M1640 295 c0 -9 7 -18 15 -21 8 -4 12 -10 9 -15 -3 -5 -10 -7 -15 -4
-5 4 -9 1 -9 -4 0 -6 9 -11 20 -11 25 0 27 35 3 45 -17 7 -16 8 2 15 19 8 19
9 -2 9 -14 1 -23 -5 -23 -14z"/>
<path d="M1198 194 c-12 -11 -10 -82 2 -89 6 -3 10 3 10 14 0 30 37 28 43 -1
2 -13 4 2 4 32 0 30 -2 45 -4 33 -6 -30 -40 -31 -45 -2 -2 11 -6 17 -10 13z"/>
<path d="M1380 189 c0 -5 5 -7 10 -4 6 3 10 8 10 11 0 2 -4 4 -10 4 -5 0 -10
-5 -10 -11z"/>
<path d="M1470 185 c0 -8 -9 -15 -20 -15 -43 0 -35 -64 9 -66 19 -1 21 4 21
47 0 27 -2 49 -5 49 -3 0 -5 -7 -5 -15z m-5 -45 c0 -7 -6 -15 -12 -17 -8 -3
-13 4 -13 17 0 13 5 20 13 18 6 -3 12 -11 12 -18z"/>
<path d="M1603 150 c0 -30 2 -43 4 -28 2 16 2 40 0 56 -2 15 -4 2 -4 -28z"/>
<path d="M1642 153 c3 -39 6 -47 25 -49 14 -3 26 3 33 15 13 26 3 51 -21 51
-10 0 -19 7 -19 15 0 8 -5 15 -11 15 -6 0 -9 -19 -7 -47z m48 -13 c0 -11 -7
-20 -15 -20 -15 0 -21 21 -8 33 12 13 23 7 23 -13z"/>
<path d="M1297 163 c-24 -23 10 -71 40 -58 16 7 15 9 -7 15 -24 8 -24 8 -2 9
32 1 31 41 -1 41 -13 0 -27 -3 -30 -7z"/>
<path d="M1380 134 c0 -21 4 -33 10 -29 6 3 10 19 10 36 0 16 -4 29 -10 29 -5
0 -10 -16 -10 -36z"/>
<path d="M1517 163 c-24 -23 10 -71 40 -58 16 7 15 9 -7 15 -24 8 -24 8 -2 9
32 1 31 41 -1 41 -13 0 -27 -3 -30 -7z"/>
<path d="M1737 164 c-4 -4 -7 -18 -7 -30 0 -24 31 -41 52 -28 9 6 5 10 -12 15
-25 7 -25 7 -2 8 17 1 22 6 20 19 -3 17 -38 29 -51 16z"/>
<path d="M1821 133 c1 -27 3 -31 6 -13 2 14 12 31 21 38 14 11 13 12 -6 12
-19 0 -22 -5 -21 -37z"/>
<path d="M1879 153 c-5 -68 -5 -68 24 -71 22 -3 27 1 27 17 0 13 -7 21 -17 21
-17 1 -17 1 0 11 26 15 21 39 -8 39 -17 0 -25 -6 -26 -17z m31 -3 c0 -5 -4
-10 -10 -10 -5 0 -10 5 -10 10 0 6 5 10 10 10 6 0 10 -4 10 -10z m0 -50 c0 -5
-4 -10 -10 -10 -5 0 -10 5 -10 10 0 6 5 10 10 10 6 0 10 -4 10 -10z"/>
</g>
</svg>
